# Blender 5.0.0
# www.blender.org
mtllib cuadro.mtl
o Plane.003
v -1.582027 0.000000 1.097118
v 1.582027 0.000000 1.097118
v -1.582027 0.000000 -1.097118
v 1.582027 0.000000 -1.097118
v -1.462903 0.000000 -0.969195
v -1.462903 0.000000 0.969195
v 1.462903 0.000000 0.969195
v 1.462903 0.000000 -0.969195
v -1.462903 0.097353 -0.969195
v -1.462903 0.097353 0.969195
v 1.462903 0.097353 0.969195
v 1.462903 0.097353 -0.969195
v -1.582027 0.097353 -1.097118
v -1.582027 0.097353 1.097118
v 1.582027 0.097353 1.097118
v 1.582027 0.097353 -1.097118
vn -0.0000 1.0000 -0.0000
vn -0.0000 -0.0000 -1.0000
vn 1.0000 -0.0000 -0.0000
vn -1.0000 -0.0000 -0.0000
vn -0.0000 -0.0000 1.0000
vt 0.999897 0.000103
vt 0.999897 0.466446
vt 0.554383 0.466446
vt 0.554383 0.000103
vt 0.554177 0.566701
vt 0.000103 0.590501
vt 0.017749 0.568706
vt 0.532942 0.550034
vt 0.060447 0.087088
vt 0.055741 0.519693
vt 0.041662 0.539087
vt 0.041394 0.073797
vt 0.493833 0.503515
vt 0.498538 0.070911
vt 0.512618 0.051517
vt 0.512885 0.516806
vt 0.000103 0.023903
vt 0.021338 0.040570
vt 0.536531 0.021898
vt 0.554177 0.000103
s 0
f 6/1/1 7/2/1 8/3/1 5/4/1
f 4/5/2 3/6/2 13/7/2 16/8/2
f 6/9/3 5/10/3 9/11/3 10/12/3
f 8/13/4 7/14/4 11/15/4 12/16/4
f 3/6/4 1/17/4 14/18/4 13/7/4
f 10/12/1 9/11/1 13/7/1 14/18/1
f 11/15/1 10/12/1 14/18/1 15/19/1
f 12/16/1 11/15/1 15/19/1 16/8/1
f 9/11/1 12/16/1 16/8/1 13/7/1
f 1/17/5 2/20/5 15/19/5 14/18/5
f 5/10/5 8/13/5 12/16/5 9/11/5
f 7/14/2 6/9/2 10/12/2 11/15/2
f 2/20/3 4/5/3 16/8/3 15/19/3
