#File written by RizomUV 2022.0.11.g5424fda. Compilation :Nov 24 2021,04:16:21
mtllib cuadro:mtl
#begin vertices
v -27.5416 40.57958 -3e-06
v 27.5416 40.57958 -3e-06
v -27.5416 0.528388 -0
v 27.5416 0.528388 -0
v 23.03149 40.57958 -3e-06
v 23.03149 0.528388 -0
v -22.49104 40.57958 -3e-06
v -22.49104 0.528388 -0
v -27.5416 37.11798 -3e-06
v 27.5416 37.11798 -3e-06
v -27.5416 4.299039 -0
v 27.5416 4.299039 -0
v 23.63919 37.55503 2.705212
v -23.08448 37.55503 2.705212
v -23.08448 3.870141 2.705215
v 23.63919 3.870141 2.705215
v -27.91304 0.355259 5.504441
v -28.2683 0 5.149182
v -23.08448 0 5.149182
v -23.08448 0.355259 5.504441
v -27.91304 40.75272 5.504438
v -28.2683 41.10798 5.149179
v -23.08448 41.10798 5.149179
v -23.08448 40.75272 5.504438
v -27.91304 3.870142 5.50444
v -28.2683 3.870142 5.149181
v 28.2683 0 5.149182
v 27.91304 0.355259 5.504441
v 28.2683 3.870142 5.149181
v 27.91304 3.870142 5.50444
v 28.2683 41.10798 5.149179
v 27.91304 40.75272 5.504438
v 23.63919 41.10798 5.149179
v 23.63919 40.75272 5.504438
v 23.63919 0 5.149182
v 23.63919 0.355259 5.504441
v -27.91304 37.55503 5.504438
v -28.2683 37.55503 5.149179
v 28.2683 37.55503 5.149179
v 27.91304 37.55503 5.504438
v -23.08448 37.55503 5.252533
v -23.33639 37.80693 5.504438
v 23.63919 37.55503 5.252533
v 23.89109 37.80693 5.504438
v -23.08448 3.870142 5.252535
v -23.33639 3.618237 5.50444
v 23.63919 3.870142 5.252535
v 23.89109 3.618237 5.50444
v -23.08448 41.19221 0.310428
v 23.63919 41.19221 0.310426
v 28.33708 41.17675 0.325886
v 28.35254 37.55503 0.310428
v 28.35254 3.870141 0.310429
v 28.33708 -0.068779 0.325889
v 23.63919 -0.084237 0.310431
v -23.08448 -0.084236 0.310429
v -28.33708 -0.068779 0.325889
v -28.35254 3.870141 0.310431
v -28.35254 37.55503 0.310426
v -28.33708 41.17675 0.325884
v -22.49104 37.11798 -3e-06
v 23.03149 37.11798 -3e-06
v 23.03149 4.299038 -0
v -22.49104 4.299038 -0
v 23.03149 37.11798 0.825076
v -22.49104 37.11798 0.825076
v 23.03149 4.299038 0.825079
v -22.49104 4.299038 0.825079
#end vertices

#begin 148 textures vertices 
vt 0.07032946 0.9861311 0
vt 0.1508452 0.5344921 0
vt 0.07044054 0.5347906 0
vt 0.1510203 0.9859025 0
vt 0.1004093 0.533412 0
vt 0.1001989 0.9867627 0
vt 0.01348966 0.9868005 0
vt 0.01401133 0.5333932 0
vt 0.07032862 0.9471921 0
vt 0.1508444 0.5732356 0
vt 0.07033735 0.5769384 0
vt 0.1508521 0.9435446 0
vt 1.765861 0.00390625 0
vt 1.765861 0.9960937 0
vt 1.050555 0.9960937 0
vt 1.050555 0.00390625 0
vt 0.1749289 0.5331197 0
vt 0.1698086 0.5279363 0
vt 0.2285596 0.5258161 0
vt 0.2289925 0.5314975 0
vt 0.176037 0.9876082 0
vt 0.1708658 0.9926408 0
vt 0.228527 0.9960044 0
vt 0.2289925 0.9902604 0
vt 0.1750111 0.5725169 0
vt 0.1693233 0.5724453 0
vt 0.29345 0.5282844 0
vt 0.2881636 0.5332933 0
vt 0.2936278 0.5725446 0
vt 0.2879494 0.5726101 0
vt 0.2921426 0.9928745 0
vt 0.2870479 0.9877878 0
vt 0.6782201 0.006750727 0
vt 0.672547 0.006750727 0
vt 0.5198499 0.006750727 0
vt 0.5255231 0.006750727 0
vt 0.1758011 0.9523649 0
vt 0.1701236 0.9524662 0
vt 0.2928388 0.9526752 0
vt 0.2871518 0.9525902 0
vt 0.307255 0.90894 0
vt 0.3032323 0.9117845 0
vt 0.6352609 0.006750727 0
vt 0.6392836 0.00390625 0
vt 0.307255 0.5285749 0
vt 0.3032323 0.5257304 0
vt 0.5486139 0.5477887 0
vt 0.5526366 0.5449443 0
vt 0.02036945 0.9945286 0
vt 0.1074819 0.5258129 0
vt 0.1602226 0.5271394 0
vt 0.1606604 0.5682793 0
vt 0.1606604 0.9484214 0
vt 0.1605834 0.9931355 0
vt 0.1073157 0.9944754 0
vt 0.02096883 0.5258161 0
vt 0.07993259 0.5275127 0
vt 0.0801441 0.5720632 0
vt 0.0801441 0.9521628 0
vt 0.0797414 0.993506 0
vt 0.01322325 0.947543 0
vt 0.09987274 0.5729438 0
vt 0.09987054 0.9438786 0
vt 0.0132507 0.5765474 0
vt 0.3744932 0.5179404 0
vt 0.3744932 0.003906273 0
vt 0.09055327 0.9438762 0
vt 0.6892055 0.5248025 0
vt 0.5623682 0.00390625 0
vt 0.2424274 0.5690015 0
vt 0.5951549 0.006750727 0
vt 0.5198499 0.5477887 0
vt 0.5663909 0.534348 0
vt 0.6064969 0.006750727 0
vt 0.5198499 0.9281539 0
vt 0.2268426 0.5687758 0
vt 0.5623682 0.5371925 0
vt 0.6064969 0.534348 0
vt 0.336019 0.90894 0
vt 0.5663909 0.006750727 0
vt 0.336019 0.5285749 0
vt 0.5951549 0.534348 0
vt 0.5526366 0.9309984 0
vt 0.2416222 0.9559851 0
vt 0.5486139 0.9281539 0
vt 0.6352609 0.534348 0
vt 0.6392836 0.5371925 0
vt 0.2275887 0.9558766 0
vt 0.2402163 0.9904231 0
vt 0.672547 0.534348 0
vt 0.5255231 0.534348 0
vt 0.3876103 0.5281618 0
vt 0.827053 0.003906252 0
vt 0.5198499 0.534348 0
vt 0.3859409 0.586673 0
vt 0.827053 0.5315035 0
vt 0.4528954 0.00546486 0
vt 0.2406742 0.52581 0
vt 0.2402163 0.5315814 0
vt 0.4543862 0.05771494 0
vt 0.4543865 0.1014161 0
vt 0.4543863 0.4817812 0
vt 0.4543863 0.5219006 0
vt 0.2407371 0.9960938 0
vt 0.9447158 0.5315035 0
vt 0.4528954 0.5741507 0
vt 0.8162583 0.5315035 0
vt 0.890069 0.5315035 0
vt 0.50752 0.5757094 0
vt 0.5088558 0.5226776 0
vt 0.8085031 0.5246415 0
vt 0.6892054 0.01076832 0
vt 0.6985221 0.01076832 0
vt 0.7410998 0.01076832 0
vt 0.5075199 0.00390625 0
vt 0.7488549 0.00390625 0
vt 0.8816998 0.5315035 0
vt 0.5088557 0.05693799 0
vt 0.7488549 0.5315035 0
vt 0.8816998 0.00390625 0
vt 0.4405654 0.5882315 0
vt 0.7410998 0.5248025 0
vt 0.4420798 0.5289387 0
vt 0.7600985 0.01060733 0
vt 0.7694151 0.01060733 0
vt 0.8085031 0.0106073 0
vt 0.890069 0.00390625 0
vt 0.8162583 0.00390625 0
vt 0.4405654 0.00390625 0
vt 0.4420797 0.06319907 0
vt 0.6782201 0.534348 0
vt 0.9447158 0.00390625 0
vt 0.3859409 0.005464935 0
vt 0.3876102 0.06397613 0
vt 0.442257 0.1040954 0
vt 0.3876102 0.1040955 0
vt 0.4422573 0.4844606 0
vt 0.3876105 0.4844607 0
vt 0.00390625 0.00390625 0
vt 0.00390625 0.9475519 0
vt 0.7600985 0.5246415 0
vt 0.00390625 0.5179404 0
vt 0.5090333 0.1014161 0
vt 0.5090331 0.4817813 0
vt 0.6985221 0.5248025 0
vt 0.003933194 0.5765569 0
vt 0.09055558 0.5729418 0
vt 0.7694152 0.5246415 0
#end 148 textures vertices 

#begin 92 normals 
vn -0 -0 1
vn -0 -0.7071 0.7071
vn -0.7071 -0 0.7071
vn -0 0.7071 0.7071
vn 0.7071 -0 0.7071
vn 0.2262 0.4519 -0.8629
vn -0.1577 0.0915 -0.9832
vn -0.0035 0.2341 -0.9722
vn -0.1358 0.1917 -0.972
vn -0.1358 -0.1916 -0.972
vn -0.0023 -0.2363 -0.9717
vn 0.2837 -0.1685 -0.944
vn 0.2262 -0.4555 -0.861
vn 0.0693 0.2817 -0.957
vn 0.3579 0.2757 -0.8921
vn 0.1359 -0.1915 -0.972
vn 0.1862 -0.0019 -0.9825
vn -0.3532 0.2758 -0.894
vn 0.0266 -0.1089 -0.9937
vn -0.1835 -0.0037 -0.983
vn -0.2847 0.167 -0.944
vn -0.226 0.4553 -0.8612
vn 0.1358 0.1916 -0.972
vn 0.0024 0.2362 -0.9717
vn -0.226 -0.4517 -0.863
vn 0.1607 -0.0904 -0.9828
vn 0.0034 -0.234 -0.9722
vn -0.1863 0.002 -0.9825
vn -0.0683 -0.2824 -0.9569
vn -0.3578 -0.2755 -0.8922
vn 0.3531 -0.2756 -0.8941
vn -0.0274 0.111 -0.9934
vn 0.1835 0.0036 -0.983
vn -0 -1 -0
vn 1 -0 -0
vn -0 1 -0
vn -1 -0 -0
vn -0.0001 0.9999 0.0173
vn -0.0001 0.9998 0.0175
vn 0.2856 0.9096 0.3018
vn 0.1561 0.9093 0.3858
vn 0.0016 0.9999 0.0158
vn 0.0018 0.9697 0.2442
vn 0.9999 0.0002 0.0173
vn 0.9096 -0.1094 0.4009
vn 0.9557 -0.0019 0.2942
vn 0.9999 0.0021 0.0158
vn 0.9999 -0.0003 0.0172
vn 0.9114 -0.2828 0.2991
vn 0.9999 -0.0019 0.0158
vn 0.9557 -0.0024 0.2942
vn -0.0001 -0.9998 0.0175
vn -0.159 -0.9085 0.3864
vn -0.0017 -0.9697 0.2442
vn 0.0016 -0.9999 0.0158
vn -0.0003 -0.9999 0.0171
vn -0.2845 -0.9104 0.3006
vn -0.0016 -0.9697 0.2442
vn -0.0015 -0.9999 0.0158
vn -0.91 0.1075 0.4003
vn -0.9558 0.0021 0.2942
vn -0.9999 -0.0019 0.0158
vn -0.9999 -0.0003 0.0172
vn -0.9108 0.2835 0.3
vn -0.9999 0.0002 0.0173
vn -0.9557 0.0025 0.2942
vn -0.9999 0.0021 0.0158
vn -0.0015 0.9999 0.0158
vn 0.1892 0.0938 -0.9775
vn -0.0613 0.1411 -0.9881
vn 0.2128 -0.0135 -0.977
vn -0 -0.1531 -0.9882
vn -0.1968 0.9775 0.0764
vn 0.0045 0.977 0.2132
vn 0.2132 0.977 -0.0045
vn -0.0764 0.9775 -0.1968
vn 0.1531 -0 -0.9882
vn -0.058 -0.1424 -0.9881
vn -0.1968 0.0764 -0.9775
vn 0.0045 0.2132 -0.977
vn -0.9881 -0.1424 0.058
vn -0.9775 0.0764 0.1968
vn -0.9775 0.1968 -0.0764
vn -0.9881 -0.058 -0.1424
vn 0.1531 -0.9882 -0
vn -0.058 -0.9881 0.1424
vn -0.1424 -0.9881 -0.058
vn -0 -0.9882 -0.1531
vn 0.977 0.2132 0.0045
vn 0.9882 -0 0.1531
vn 0.9882 -0.1531 -0
vn 0.977 0.0045 -0.2132
#end 92 normals 

#begin 66 faces
o cuadro
s 1
f 13/13/1 14/14/1 15/15/1 16/16/1 
f 17/17/2 18/18/2 19/19/2 20/20/2 
f 18/18/3 17/17/3 25/25/3 26/26/3 
f 20/91/2 19/94/2 35/35/2 36/36/2 
f 21/21/3 22/22/3 38/38/3 37/37/3 
f 22/22/4 21/21/4 24/24/4 23/23/4 
f 23/131/4 24/90/4 34/34/4 33/33/4 
f 26/26/3 25/25/3 37/37/3 38/38/3 
f 27/27/2 28/28/2 36/99/2 35/98/2 
f 28/28/5 27/27/5 29/29/5 30/30/5 
f 30/30/5 29/29/5 39/39/5 40/40/5 
f 31/31/5 32/32/5 40/40/5 39/39/5 
f 32/32/4 31/31/4 33/104/4 34/89/4 
f 60/60/6 49/49/7 7/7/8 1/1/9 
f 3/3/10 8/8/11 56/56/12 57/57/13 
f 53/53/14 54/54/15 4/4/16 12/12/17 
f 3/3/10 57/57/18 58/58/19 11/11/20 
f 50/50/21 51/51/22 2/2/23 5/5/24 
f 54/54/25 55/55/26 6/6/27 4/4/16 
f 49/128/7 50/107/21 5/111/24 7/126/8 
f 55/116/26 56/119/12 8/122/11 6/114/27 
f 9/9/28 59/59/29 60/60/30 1/1/9 
f 51/51/31 52/52/32 10/10/33 2/2/23 
f 11/11/20 58/58/19 59/59/29 9/9/28 
f 52/52/32 53/53/14 12/12/17 10/10/33 
f 41/41/5 42/42/5 46/46/5 45/45/5 
f 42/87/2 41/86/2 43/43/2 44/44/2 
f 44/83/3 43/85/3 47/47/3 48/48/3 
f 45/73/4 46/77/4 48/69/4 47/80/4 
f 43/43/34 41/86/34 14/78/34 13/74/34 
f 41/41/35 45/45/35 15/81/35 14/79/35 
f 45/73/36 47/80/36 16/71/36 15/82/36 
f 47/47/37 43/85/37 13/75/37 16/72/37 
f 17/17/1 20/20/1 46/76/1 25/25/1 
f 48/70/1 36/99/1 28/28/1 30/30/1 
f 48/69/1 46/77/1 20/91/1 36/36/1 
f 37/37/1 42/88/1 24/24/1 21/21/1 
f 34/89/1 44/84/1 40/40/1 32/32/1 
f 24/90/1 42/87/1 44/44/1 34/34/1 
f 25/25/1 46/76/1 42/88/1 37/37/1 
f 44/84/1 48/70/1 30/30/1 40/40/1 
f 23/132/38 33/105/39 50/108/40 49/127/41 
f 33/106/39 31/103/42 51/110/43 50/109/40 
f 39/102/44 52/144/45 51/110/46 31/103/47 
f 29/101/48 53/143/49 52/144/45 39/102/44 
f 27/100/50 54/118/51 53/143/49 29/101/48 
f 35/97/52 55/115/53 54/118/54 27/100/55 
f 19/93/56 56/120/57 55/117/53 35/96/52 
f 57/123/58 56/121/57 19/95/56 18/92/59 
f 58/137/60 57/123/61 18/92/62 26/138/63 
f 59/135/64 58/137/60 26/138/63 38/136/65 
f 60/130/66 59/135/64 38/136/65 22/134/67 
f 22/134/68 23/133/38 49/129/41 60/130/43 
f 63/63/69 12/12/17 4/4/16 6/6/27 
f 5/5/24 2/2/23 10/10/33 62/62/70 
f 11/11/20 64/64/71 8/8/11 3/3/10 
f 1/1/9 7/7/8 61/61/72 9/9/28 
f 64/145/71 63/113/69 6/114/27 8/122/11 
f 7/126/8 5/111/24 62/148/70 61/125/72 
f 63/113/73 64/145/74 68/68/75 67/112/76 
f 62/62/70 10/10/33 12/12/17 63/63/69 
f 9/9/28 61/61/72 64/64/71 11/11/20 
f 66/66/77 65/65/78 67/142/79 68/139/80 
f 62/62/81 63/63/82 67/67/83 65/147/84 
f 61/125/85 62/148/86 65/141/87 66/124/88 
f 64/64/89 61/61/90 66/140/91 68/146/92 
#end 66 faces

#ZOMPROPERTIES_04{
#ZOMPROPERTIES_04 table {Mesh table {SymPlane table {Point vector3d 0 0 0 Normal vector3d 1 0 0 Threshold double 0.01 
#ZOMPROPERTIES_04 Enabled bool false EdgeID int -1 SymEdgeID int -1 UPos double 0.5 LocalMode bool false } RootGroup C
#ZOMPROPERTIES_04 SubMeshGroup {Children table {Tile_0_0 CSubMeshGroup {Children table {} BBoxUV box3d 0 0 0 0 0 0 BBo
#ZOMPROPERTIES_04 x3D box3d 0 0 0 0 0 0 Area3D double 0 AreaUV double 0.590878 IsRoot bool false TopoStable table {Sel
#ZOMPROPERTIES_04 ected bool false Box box3d 0 1 0 1 0 1 U int 0 V int 0 NU int 0 NV int 0 Tiling vector3d 1 1 1 TileR
#ZOMPROPERTIES_04 atioMode string "1:1" Pack table {BoxFrameLocked bool false BoxFrameEdit bool false } } IsTile bool 
#ZOMPROPERTIES_04 true PolyIDs ints { 27 32 25 30 8 34 40 37 12 11 10 9 1 2 7 4 5 36 39 33 41 47 19 58 64 20 57 59 42 
#ZOMPROPERTIES_04 43 44 45 46 15 53 60 54 17 22 24 63 18 48 49 50 51 52 13 56 61 55 14 16 65 23 21 6 38 26 29 3 35 28 
#ZOMPROPERTIES_04 31 62 } } Tile_1_0 CSubMeshGroup {Children table {} BBoxUV box3d 0 0 0 0 0 0 BBox3D box3d 0 0 0 0 0 
#ZOMPROPERTIES_04 0 Area3D double 0 AreaUV double 0.709718 IsRoot bool false TopoStable table {Selected bool false Box
#ZOMPROPERTIES_04  box3d 1 2 0 1 0 1 U int 1 V int 0 NU int 0 NV int 0 Tiling vector3d 1 1 1 TileRatioMode string "1:1
#ZOMPROPERTIES_04 " Pack table {BoxFrameLocked bool false BoxFrameEdit bool false } } IsTile bool true PolyIDs ints { 
#ZOMPROPERTIES_04 0 } } } BBoxUV box3d 0 0 0 0 0 0 BBox3D box3d 0 0 0 0 0 0 Area3D double 0 AreaUV double 0 IsRoot boo
#ZOMPROPERTIES_04 l true TopoStable table {Selected bool false Box box3d 0 1 0 1 0 1 U int 0 V int 0 NU int 2 NV int 1
#ZOMPROPERTIES_04  Tiling vector3d 1 1 1 TileRatioMode string "1:1" Pack table {Rotate table {Mode int 2 Min double 0 
#ZOMPROPERTIES_04 Max double 90 Step double 0 } PaddingSize double 0.0078125 MarginSize double 0.00390625 Resolution i
#ZOMPROPERTIES_04 nt 256 MapResolution int 2048 Scaling table {TexelDensity double 1024 Mode int 0 } LayoutScalingMode
#ZOMPROPERTIES_04  int 2 MaxMutations int 1 } } IsTile bool false PolyIDs ints { } } Maps table {Density table {PrimTy
#ZOMPROPERTIES_04 pe string "Polygon" Size int 1 DefaultValue double 1 ScaleType string "Log" MergeMode string "Averag
#ZOMPROPERTIES_04 e" MinValue double 0.1 MaxValue double 4 Data doubles { r 66 1 } } Pin table {PrimType string "Verte
#ZOMPROPERTIES_04 x" Size int 1 DefaultValue double 0 ScaleType string "Normalized" MergeMode string "Max" MinValue do
#ZOMPROPERTIES_04 uble 0 MaxValue double 1 Data doubles { r 148 0 } } Protect table {PrimType string "Vertex" Size int
#ZOMPROPERTIES_04  1 DefaultValue double 0 ScaleType string "Normalized" MergeMode string "Average" MinValue double -1
#ZOMPROPERTIES_04  MaxValue double 1 Data doubles { r 148 0 } } } } }
#ZOMPROPERTIES_04}


#ZOMSCENE_01{
#ZOMSCENE_01 CScene {Settings table {AxisSystem table {UpVector string "y" } Unit string "cm" } }
#ZOMSCENE_01}

#begin 0 fatal error vertex (that RizomUV cannot handle)
#end 0 fatal error vertex (that RizomUV cannot handle)

#begin 0 error vertex
#end 0 error vertex
